<?xml version="1.0" encoding="UTF-8"?>
<svg width="512.6mm" height="388.31mm" version="1.1" viewBox="0 0 512.6 388.31" xmlns="http://www.w3.org/2000/svg">
 <g transform="translate(333.9 143.8)">
  <g transform="matrix(.8838 0 0 .67299 -333.9 -143.8)">
   <rect width="580" height="577" fill="#272822"/>
   <g class="code block" stroke-linecap="square" stroke-width="5">
    <g class="code block">
     <line x1="47.5" x2="162.5" y1="50" y2="50" stroke="#75715e"/>
    </g>
    <g class="code block">
     <line x1="47.5" x2="167.5" y1="59" y2="59" stroke="#75715e"/>
    </g>
    <g class="code block">
     <line x1="47.5" x2="447.5" y1="68" y2="68" stroke="#75715e"/>
    </g>
    <g class="code block">
     <line x1="47.5" x2="162.5" y1="77" y2="77" stroke="#75715e"/>
    </g>
    <g class="code block">
     <line x1="47.5" x2="447.5" y1="86" y2="86" stroke="#75715e"/>
    </g>
    <g class="code block">
     <line x1="47.5" x2="82.5" y1="104" y2="104" stroke="#f92672"/>
     <line x1="87.5" x2="107.5" y1="104" y2="104" stroke="#ddd"/>
     <line x1="117.5" x2="122.5" y1="104" y2="104" stroke="#f92672"/>
     <line x1="132.5" x2="137.5" y1="104" y2="104" stroke="#ddd"/>
    </g>
    <g class="code block">
     <line x1="47.5" x2="82.5" y1="113" y2="113" stroke="#f92672"/>
     <line x1="87.5" x2="97.5" y1="113" y2="113" stroke="#ddd"/>
    </g>
    <g class="code block">
     <line x1="47.5" x2="72.5" y1="122" y2="122" stroke="#f92672"/>
     <line x1="77.5" x2="102.5" y1="122" y2="122" stroke="#ddd"/>
     <line x1="112.5" x2="137.5" y1="122" y2="122" stroke="#f92672"/>
     <line x1="147.5" x2="172.5" y1="122" y2="122" stroke="#ddd"/>
    </g>
    <g class="code block">
     <line x1="47.5" x2="82.5" y1="131" y2="131" stroke="#f92672"/>
     <line x1="87.5" x2="112.5" y1="131" y2="131" stroke="#ddd"/>
    </g>
    <g class="code block">
     <line x1="47.5" x2="72.5" y1="140" y2="140" stroke="#f92672"/>
     <line x1="77.5" x2="137.5" y1="140" y2="140" stroke="#ddd"/>
     <line x1="147.5" x2="172.5" y1="140" y2="140" stroke="#f92672"/>
     <line x1="182.5" x2="232.5" y1="140" y2="140" stroke="#ddd"/>
    </g>
    <g class="code block" stroke="#ddd">
     <line x1="47.5" x2="67.5" y1="158" y2="158"/>
     <line x1="72.5" x2="72.5" y1="158" y2="158"/>
     <line x1="82.5" x2="162.5" y1="158" y2="158"/>
     <line x1="167.5" x2="167.5" y1="158" y2="158"/>
     <line x1="172.5" x2="172.5" y1="158" y2="158"/>
    </g>
    <g class="code block" stroke="#ddd">
     <line x1="47.5" x2="107.5" y1="167" y2="167"/>
     <line x1="112.5" x2="112.5" y1="167" y2="167"/>
     <line x1="122.5" x2="122.5" y1="167" y2="167"/>
    </g>
    <g class="code block" stroke="#ddd">
     <line x1="47.5" x2="77.5" y1="185" y2="185"/>
     <line x1="82.5" x2="82.5" y1="185" y2="185"/>
     <line x1="92.5" x2="147.5" y1="185" y2="185"/>
     <line x1="152.5" x2="152.5" y1="185" y2="185"/>
     <line x1="157.5" x2="157.5" y1="185" y2="185"/>
     <line x1="167.5" x2="177.5" y1="185" y2="185"/>
     <line x1="182.5" x2="187.5" y1="185" y2="185"/>
    </g>
    <g class="code block" stroke="#ddd">
     <line x1="47.5" x2="82.5" y1="194" y2="194"/>
     <line x1="87.5" x2="87.5" y1="194" y2="194"/>
     <line x1="97.5" x2="152.5" y1="194" y2="194"/>
     <line x1="157.5" x2="157.5" y1="194" y2="194"/>
     <line x1="162.5" x2="162.5" y1="194" y2="194"/>
     <line x1="172.5" x2="182.5" y1="194" y2="194"/>
     <line x1="187.5" x2="192.5" y1="194" y2="194"/>
    </g>
    <g class="code block">
     <g stroke="#ddd">
      <line x1="47.5" x2="82.5" y1="212" y2="212"/>
      <line x1="87.5" x2="87.5" y1="212" y2="212"/>
      <line x1="97.5" x2="212.5" y1="212" y2="212"/>
     </g>
     <line x1="217.5" x2="242.5" y1="212" y2="212" stroke="#a6e22e"/>
     <line x1="247.5" x2="247.5" y1="212" y2="212" stroke="#ddd"/>
    </g>
    <g class="code block">
     <g stroke="#ddd">
      <line x1="47.5" x2="67.5" y1="221" y2="221"/>
      <line x1="72.5" x2="72.5" y1="221" y2="221"/>
      <line x1="82.5" x2="157.5" y1="221" y2="221"/>
     </g>
     <line x1="162.5" x2="217.5" y1="221" y2="221" stroke="#a6e22e"/>
     <g stroke="#ddd">
      <line x1="222.5" x2="222.5" y1="221" y2="221"/>
      <line x1="232.5" x2="262.5" y1="221" y2="221"/>
      <line x1="272.5" x2="287.5" y1="221" y2="221"/>
      <line x1="292.5" x2="292.5" y1="221" y2="221"/>
      <line x1="302.5" x2="332.5" y1="221" y2="221"/>
      <line x1="342.5" x2="377.5" y1="221" y2="221"/>
     </g>
    </g>
    <g class="code block">
     <line x1="47.5" x2="77.5" y1="239" y2="239" stroke="#f92672"/>
     <line x1="77.5" x2="157.5" y1="239" y2="239" stroke="#ddd"/>
    </g>
    <g class="code block" stroke="#ddd">
     <line x1="72.5" x2="87.5" y1="248" y2="248"/>
     <line x1="97.5" x2="117.5" y1="248" y2="248"/>
     <line x1="127.5" x2="127.5" y1="248" y2="248"/>
     <line x1="137.5" x2="182.5" y1="248" y2="248"/>
    </g>
    <g class="code block">
     <line x1="72.5" x2="77.5" y1="257" y2="257" stroke="#f92672"/>
     <line x1="87.5" x2="97.5" y1="257" y2="257" stroke="#ddd"/>
     <line x1="107.5" x2="112.5" y1="257" y2="257" stroke="#ddd"/>
     <line x1="122.5" x2="137.5" y1="257" y2="257" stroke="#f92672"/>
     <line x1="142.5" x2="142.5" y1="257" y2="257" stroke="#ddd"/>
    </g>
    <g class="code block" stroke="#ddd">
     <line x1="92.5" x2="127.5" y1="266" y2="266"/>
     <line x1="137.5" x2="137.5" y1="266" y2="266"/>
     <line x1="147.5" x2="242.5" y1="266" y2="266"/>
    </g>
    <g class="code block">
     <line x1="92.5" x2="102.5" y1="284" y2="284" stroke="#f92672"/>
     <line x1="112.5" x2="142.5" y1="284" y2="284" stroke="#ddd"/>
     <line x1="152.5" x2="157.5" y1="284" y2="284" stroke="#f92672"/>
     <line x1="167.5" x2="207.5" y1="284" y2="284" stroke="#ddd"/>
    </g>
    <g class="code block" stroke="#ddd">
     <line x1="112.5" x2="122.5" y1="293" y2="293"/>
     <line x1="132.5" x2="137.5" y1="293" y2="293"/>
     <line x1="147.5" x2="152.5" y1="293" y2="293"/>
     <line x1="162.5" x2="167.5" y1="293" y2="293"/>
     <line x1="177.5" x2="177.5" y1="293" y2="293"/>
     <line x1="187.5" x2="242.5" y1="293" y2="293"/>
    </g>
    <g class="code block" stroke="#ddd">
     <line x1="112.5" x2="207.5" y1="302" y2="302"/>
     <line x1="217.5" x2="222.5" y1="302" y2="302"/>
     <line x1="232.5" x2="232.5" y1="302" y2="302"/>
     <line x1="242.5" x2="247.5" y1="302" y2="302"/>
     <line x1="252.5" x2="252.5" y1="302" y2="302"/>
     <line x1="262.5" x2="262.5" y1="302" y2="302"/>
     <line x1="272.5" x2="272.5" y1="302" y2="302"/>
     <line x1="282.5" x2="287.5" y1="302" y2="302"/>
     <line x1="292.5" x2="297.5" y1="302" y2="302"/>
     <line x1="307.5" x2="312.5" y1="302" y2="302"/>
     <line x1="322.5" x2="322.5" y1="302" y2="302"/>
     <line x1="332.5" x2="332.5" y1="302" y2="302"/>
     <line x1="342.5" x2="342.5" y1="302" y2="302"/>
     <line x1="352.5" x2="357.5" y1="302" y2="302"/>
     <line x1="362.5" x2="362.5" y1="302" y2="302"/>
     <line x1="372.5" x2="372.5" y1="302" y2="302"/>
     <line x1="382.5" x2="382.5" y1="302" y2="302"/>
     <line x1="392.5" x2="392.5" y1="302" y2="302"/>
     <line x1="402.5" x2="402.5" y1="302" y2="302"/>
     <line x1="412.5" x2="417.5" y1="302" y2="302"/>
     <line x1="422.5" x2="427.5" y1="302" y2="302"/>
     <line x1="437.5" x2="437.5" y1="302" y2="302"/>
     <line x1="442.5" x2="442.5" y1="302" y2="302"/>
     <line x1="447.5" x2="447.5" y1="302" y2="302"/>
     <line x1="457.5" x2="457.5" y1="302" y2="302"/>
     <line x1="462.5" x2="462.5" y1="302" y2="302"/>
     <line x1="472.5" x2="482.5" y1="302" y2="302"/>
     <line x1="487.5" x2="492.5" y1="302" y2="302"/>
     <line x1="502.5" x2="502.5" y1="302" y2="302"/>
     <line x1="507.5" x2="507.5" y1="302" y2="302"/>
    </g>
    <g class="code block">
     <g stroke="#ddd">
      <line x1="112.5" x2="162.5" y1="311" y2="311"/>
      <line x1="172.5" x2="172.5" y1="311" y2="311"/>
      <line x1="182.5" x2="277.5" y1="311" y2="311"/>
     </g>
     <line x1="282.5" x2="312.5" y1="311" y2="311" stroke="#a6e22e"/>
     <line x1="317.5" x2="317.5" y1="311" y2="311" stroke="#ddd"/>
    </g>
    <g class="code block" stroke="#ddd">
     <line x1="112.5" x2="162.5" y1="320" y2="320"/>
     <line x1="172.5" x2="172.5" y1="320" y2="320"/>
     <line x1="182.5" x2="237.5" y1="320" y2="320"/>
    </g>
    <g class="code block">
     <g stroke="#ddd">
      <line x1="112.5" x2="127.5" y1="329" y2="329"/>
      <line x1="137.5" x2="137.5" y1="329" y2="329"/>
      <line x1="147.5" x2="152.5" y1="329" y2="329"/>
     </g>
     <line x1="157.5" x2="217.5" y1="329" y2="329" stroke="#a6e22e"/>
     <line x1="227.5" x2="227.5" y1="329" y2="329" stroke="#ddd"/>
     <line x1="232.5" x2="292.5" y1="329" y2="329" stroke="#a6e22e"/>
     <line x1="297.5" x2="302.5" y1="329" y2="329" stroke="#ddd"/>
    </g>
    <g class="code block" stroke="#ddd">
     <line x1="112.5" x2="197.5" y1="338" y2="338"/>
     <line x1="207.5" x2="227.5" y1="338" y2="338"/>
     <line x1="237.5" x2="247.5" y1="338" y2="338"/>
     <line x1="257.5" x2="257.5" y1="338" y2="338"/>
     <line x1="267.5" x2="267.5" y1="338" y2="338"/>
     <line x1="277.5" x2="282.5" y1="338" y2="338"/>
     <line x1="287.5" x2="292.5" y1="338" y2="338"/>
     <line x1="302.5" x2="422.5" y1="338" y2="338"/>
     <line x1="432.5" x2="442.5" y1="338" y2="338"/>
     <line x1="447.5" x2="447.5" y1="338" y2="338"/>
     <line x1="457.5" x2="457.5" y1="338" y2="338"/>
     <line x1="462.5" x2="462.5" y1="338" y2="338"/>
     <line x1="467.5" x2="467.5" y1="338" y2="338"/>
     <line x1="477.5" x2="487.5" y1="338" y2="338"/>
     <line x1="492.5" x2="492.5" y1="338" y2="338"/>
     <line x1="502.5" x2="502.5" y1="338" y2="338"/>
     <line x1="507.5" x2="512.5" y1="338" y2="338"/>
     <line x1="522.5" x2="522.5" y1="338" y2="338"/>
     <line x1="527.5" x2="527.5" y1="338" y2="338"/>
    </g>
    <g class="code block">
     <g stroke="#ddd">
      <line x1="112.5" x2="137.5" y1="347" y2="347"/>
      <line x1="142.5" x2="177.5" y1="347" y2="347"/>
      <line x1="187.5" x2="207.5" y1="347" y2="347"/>
     </g>
     <line x1="217.5" x2="277.5" y1="347" y2="347" stroke="#a6e22e"/>
     <line x1="287.5" x2="317.5" y1="347" y2="347" stroke="#ddd"/>
     <line x1="327.5" x2="387.5" y1="347" y2="347" stroke="#a6e22e"/>
     <line x1="392.5" x2="392.5" y1="347" y2="347" stroke="#ddd"/>
     <line x1="397.5" x2="397.5" y1="347" y2="347" stroke="#ddd"/>
    </g>
    <g class="code block">
     <line x1="112.5" x2="187.5" y1="365" y2="365" stroke="#ddd"/>
    </g>
    <g class="code block">
     <line x1="92.5" x2="142.5" y1="383" y2="383" stroke="#ddd"/>
     <line x1="147.5" x2="177.5" y1="383" y2="383" stroke="#a6e22e"/>
     <line x1="182.5" x2="212.5" y1="383" y2="383" stroke="#ddd"/>
    </g>
    <g class="code block" stroke="#ddd">
     <line x1="92.5" x2="92.5" y1="401" y2="401"/>
     <line x1="102.5" x2="102.5" y1="401" y2="401"/>
     <line x1="112.5" x2="167.5" y1="401" y2="401"/>
     <line x1="172.5" x2="172.5" y1="401" y2="401"/>
     <line x1="177.5" x2="177.5" y1="401" y2="401"/>
    </g>
    <g class="code block">
     <line x1="72.5" x2="77.5" y1="410" y2="410" stroke="#f92672"/>
     <g stroke="#ddd">
      <line x1="87.5" x2="92.5" y1="410" y2="410"/>
      <line x1="97.5" x2="107.5" y1="410" y2="410"/>
      <line x1="117.5" x2="122.5" y1="410" y2="410"/>
      <line x1="132.5" x2="137.5" y1="410" y2="410"/>
      <line x1="142.5" x2="142.5" y1="410" y2="410"/>
     </g>
    </g>
    <g class="code block">
     <line x1="92.5" x2="152.5" y1="419" y2="419" stroke="#75715e"/>
    </g>
    <g class="code block">
     <line x1="92.5" x2="117.5" y1="428" y2="428" stroke="#ddd"/>
     <line x1="122.5" x2="237.5" y1="428" y2="428" stroke="#a6e22e"/>
     <line x1="242.5" x2="242.5" y1="428" y2="428" stroke="#ddd"/>
    </g>
    <g class="code block">
     <line x1="92.5" x2="112.5" y1="437" y2="437" stroke="#f92672"/>
    </g>
    <g class="code block">
     <line x1="72.5" x2="87.5" y1="446" y2="446" stroke="#f92672"/>
     <g stroke="#ddd">
      <line x1="97.5" x2="102.5" y1="446" y2="446"/>
      <line x1="107.5" x2="117.5" y1="446" y2="446"/>
      <line x1="127.5" x2="132.5" y1="446" y2="446"/>
      <line x1="142.5" x2="147.5" y1="446" y2="446"/>
      <line x1="152.5" x2="152.5" y1="446" y2="446"/>
     </g>
    </g>
    <g class="code block">
     <line x1="92.5" x2="162.5" y1="455" y2="455" stroke="#75715e"/>
    </g>
    <g class="code block">
     <g stroke="#ddd">
      <line x1="92.5" x2="127.5" y1="464" y2="464"/>
      <line x1="137.5" x2="137.5" y1="464" y2="464"/>
      <line x1="147.5" x2="182.5" y1="464" y2="464"/>
     </g>
     <line x1="187.5" x2="247.5" y1="464" y2="464" stroke="#a6e22e"/>
     <line x1="252.5" x2="272.5" y1="464" y2="464" stroke="#ddd"/>
    </g>
    <g class="code block" stroke="#ddd">
     <line x1="92.5" x2="192.5" y1="473" y2="473"/>
     <line x1="202.5" x2="227.5" y1="473" y2="473"/>
    </g>
    <g class="code block">
     <line x1="92.5" x2="117.5" y1="482" y2="482" stroke="#ddd"/>
     <line x1="122.5" x2="182.5" y1="482" y2="482" stroke="#a6e22e"/>
     <line x1="187.5" x2="272.5" y1="482" y2="482" stroke="#ddd"/>
    </g>
    <g class="code block" stroke="#ddd">
     <line x1="92.5" x2="142.5" y1="491" y2="491"/>
     <line x1="152.5" x2="157.5" y1="491" y2="491"/>
     <line x1="167.5" x2="167.5" y1="491" y2="491"/>
    </g>
    <g class="code block">
     <line x1="47.5" x2="117.5" y1="509" y2="509" stroke="#ddd"/>
    </g>
    <g class="code block">
     <line x1="47.5" x2="117.5" y1="518" y2="518" stroke="#ddd"/>
    </g>
    <g class="code block">
     <line x1="47.5" x2="167.5" y1="527" y2="527" stroke="#ddd"/>
    </g>
   </g>
  </g>
 </g>
</svg>
